<?xml version="1.0" encoding="iso-8859-1"?>
<!-- Uploaded to: SVG Repo, www.svgrepo.com, Generator: SVG Repo Mixer Tools -->
<svg height="800px" width="800px" version="1.1" id="Layer_1" xmlns="http://www.w3.org/2000/svg" xmlns:xlink="http://www.w3.org/1999/xlink" 
	 viewBox="0 0 512 512" xml:space="preserve">
<path style="fill:#F95428;" d="M341.325,144.791c-85.338,0-85.338,20.61-170.662,20.61c-85.338,0-85.338-20.61-170.662-20.61v67.267
	v67.277V346.6c85.325,0,85.325,20.61,170.662,20.61c85.325,0,85.325-20.61,170.662-20.61s85.338,20.61,170.675,20.61v-67.265
	v-67.277V165.4C426.662,165.4,426.662,144.791,341.325,144.791z"/>
<path style="fill:#F7B239;" d="M512,232.666v67.278c-85.338,0-85.338-20.61-170.675-20.61s-85.338,20.61-170.662,20.61
	c-85.338,0-85.338-20.61-170.662-20.61v-67.278c85.325,0,85.325,20.61,170.662,20.61c85.325,0,85.325-20.61,170.662-20.61
	S426.662,232.666,512,232.666z"/>
</svg>