<svg xmlns="http://www.w3.org/2000/svg" viewBox="0 0 543.3 680.48"><defs><style>.cls-1{fill:#f5e5d8;}.cls-2{fill:#eaceb9;}.cls-3{opacity:0.5;}</style></defs><g id="Ebene_2" data-name="Ebene 2"><g id="Assets"><g id="Space_Egg_Default" data-name="Space Egg Default"><g id="Egg"><path class="cls-1" d="M255.35,665.71c-83.11,0-145.95-23.58-186.76-70.1C33.38,555.49,14.77,497.51,14.77,428c0-89.77,30.94-194,82.76-278.9,24.9-40.76,53.37-74.62,82.33-97.91,30-24.14,59.32-36.38,87.05-36.38,55,0,120.1,49.73,174,133,54.86,84.78,87.61,188.11,87.61,276.42,0,34.14-4.82,65.59-14.34,93.47-10.09,29.56-25.51,55.17-45.83,76.11C422,641.51,350.37,665.71,255.35,665.71Z"/><path class="cls-2" d="M266.91,29.54c24,0,51.45,11.41,79.35,33,28.66,22.16,57.1,54.42,82.26,93.29,53.37,82.48,85.24,182.81,85.24,268.39,0,32.52-4.56,62.36-13.55,88.7-9.38,27.48-23.66,51.23-42.45,70.6-43.43,44.74-111.53,67.43-202.41,67.43-78.67,0-137.77-21.89-175.66-65.07C63,566.8,50.21,543.36,41.8,516.19,33.67,490,29.54,460.27,29.54,428c0-43.59,7.69-92,22.24-140,14-46.29,34.21-91.66,58.36-131.21,24-39.32,51.33-71.86,79-94.1C216.07,41,243,29.54,266.91,29.54m0-29.54C46.38,0-197.65,680.48,255.35,680.48,764.6,680.48,487.43,0,266.91,0Z"/><g class="cls-3"><ellipse class="cls-2" cx="282.62" cy="158.94" rx="38.9" ry="61.07" transform="translate(-40 126.5) rotate(-23.61)"/><ellipse class="cls-2" cx="355.83" cy="262.27" rx="20.55" ry="34.04" transform="translate(-75.26 164.48) rotate(-23.61)"/><ellipse class="cls-2" cx="376.64" cy="174.79" rx="28.67" ry="47.49" transform="translate(-38.48 165.49) rotate(-23.61)"/></g></g></g></g></g></svg>