<?xml version="1.0" encoding="UTF-8" standalone="no"?>
<svg
   version="1.1"
   viewBox="83.09 105.35 324.87068 261.37527"
   id="svg20"
   width="324.87067"
   height="261.37527"
   xmlns="http://www.w3.org/2000/svg"
   xmlns:svg="http://www.w3.org/2000/svg">
  <defs
     id="defs24" />
  <path
     d="m 282.5639,139.61704 c 33.91,-64.419998 64.36,-111.539998 112.3,-170.839998 17.45,-20.85 50.91,-23.086 34.45,10.82 -25.85,53.27 -97.86,154.879998 -108.55,180.299998 z"
     fill="#4d4d4d"
     id="path2" />
  <path
     d="m 317.3939,126.30704 a 12.269,42.169 26.738 1 1 1.48,-0.69"
     fill="#666666"
     id="path4" />
  <path
     d="m 355.9539,338.66704 c -70.19,48.66 -176.31,42.501 -237.03,-13.754 -60.714996,-56.255 -53.031996,-141.31 17.159,-189.96 70.194,-48.657998 176.31,-42.499998 237.03,13.755 56.975,52.79 54.183,131.72 -6.431,181.84"
     fill="#3b3b3b"
     id="path6" />
  <g
     id="g18"
     transform="translate(-5.1160958,-151.82296)">
    <path
       d="m 356.9,486.66 c -67.844,47.21 -170.42,41.236 -229.11,-13.345 -58.688,-54.581 -51.26,-137.1 16.586,-184.3 67.85,-47.21 170.42,-41.235 229.12,13.345 55.072,51.219 52.374,127.8 -6.216,176.42"
       fill="#202020"
       id="path8" />
    <path
       d="m 152.97,315.52 c 58.731,-45.694 150.93,-44.834 205.92,1.92 54.99,46.754 51.974,121.69 -6.757,167.39 -58.731,45.7 -150.92,44.834 -205.92,-1.919 -51.612,-43.873 -52.563,-113.23 -2.194,-159.8"
       fill="#252525"
       id="path10" />
    <path
       d="m 167.6,314.61 c 62.043,-33.93 150.12,-20.957 196.72,28.973 46.6,49.93 34.081,117.91 -27.963,151.84 -62.044,33.93 -150.11,20.958 -196.72,-28.973 -43.73,-46.855 -35.731,-110.27 18.427,-146.1"
       fill="#252525"
       id="path12" />
    <path
       d="m 345.88,484.91 c -58.78,39.383 -147.65,34.399 -198.49,-11.131 -50.84,-45.53 -44.407,-114.36 14.373,-153.75 58.78,-39.39 147.64,-34.399 198.49,11.131 47.71,42.726 45.373,106.6 -5.386,147.17"
       fill="#303030"
       id="path14" />
    <path
       d="m 259.5,297.05 c -0.96625,2.1917 -1.8215,3.4811 -2.3382,3.3393 l -7.4708,-2.0507 c -0.26561,-0.0729 -0.41025,-0.53123 -0.45432,-1.2658 -3.5778,0.10813 -7.1525,0.31346 -10.716,0.6405 -0.20116,0.8267 -0.36183,1.5991 -0.60071,2.4688 -1.9449,7.0812 -4.3474,12.552 -5.3874,12.266 l -7.4708,-2.0507 c -0.92605,-0.25422 -0.39192,-5.0621 1.0968,-11.095 -4.1962,0.69183 -8.3591,1.5436 -12.48,2.5449 l 2.1044,0.57776 c 1.0399,0.28549 0.3119,6.217 -1.633,13.298 -1.9449,7.0812 -4.3474,12.552 -5.3874,12.266 l -7.4708,-2.0507 c -1.0399,-0.2855 -0.31193,-6.217 1.6329,-13.298 0.9479,-3.4513 2.0013,-6.4888 2.956,-8.695 -0.65521,0.19339 -1.3171,0.36682 -1.9694,0.56826 -11.59,3.029 -22.774,7.3354 -33.193,13.032 l -9.2825,5.5857 c -8.2571,5.4616 -15.41,11.582 -21.441,18.196 l 6.1364,1.6858 c 1.0399,0.2855 0.31193,6.2151 -1.6329,13.296 -1.9448,7.0812 -4.3494,12.552 -5.3893,12.266 l -7.4708,-2.0507 c -1.0399,-0.28549 -0.31191,-6.2151 1.633,-13.296 0.65975,-2.4022 1.3646,-4.4858 2.0587,-6.3555 -15.823,20.076 -22.037,43.967 -18.065,67.58 0.77085,-1.5678 1.4637,-2.6158 1.8953,-2.4973 l 7.4708,2.0507 c 1.0399,0.2855 0.31191,6.217 -1.6329,13.298 -0.67999,2.4758 -1.4054,4.614 -2.1196,6.5189 1.4368,3.46 3.1232,6.8843 5.0224,10.267 1.7654,-5.7137 3.6845,-9.9007 4.587,-9.653 l 7.4708,2.0507 c 1.0399,0.2855 0.31192,6.2151 -1.6329,13.296 -0.71192,2.5921 -1.475,4.8221 -2.2204,6.7793 1.9329,2.5272 4.0367,5.0076 6.2542,7.4521 1.0816,-2.5928 2.0604,-4.238 2.6272,-4.0824 l 7.4708,2.0507 c 0.92122,0.25291 0.39648,5.0158 -1.0741,11.004 6.9576,6.2535 14.634,11.788 22.855,16.579 0.35512,-2.1545 0.86494,-4.6279 1.6291,-7.4103 1.9449,-7.0812 4.3474,-12.552 5.3874,-12.266 l 7.4727,2.0507 c 1.0399,0.2855 0.31001,6.217 -1.6348,13.298 -1.0784,3.9263 -2.2752,7.2259 -3.3248,9.4553 8.6707,4.257 17.83,7.7236 27.275,10.421 0.26737,-2.4358 0.92535,-5.7827 1.9523,-9.5218 1.9448,-7.0812 4.3474,-12.552 5.3874,-12.266 l 7.4727,2.0507 c 1.0399,0.2855 0.31002,6.2151 -1.6348,13.296 -0.99535,3.624 -2.1036,6.7934 -3.0948,9.0182 8.5581,1.8967 17.295,3.1579 26.085,3.7669 0.30139,-1.3793 0.6379,-2.8177 1.0588,-4.3504 1.9449,-7.0812 4.3475,-12.552 5.3874,-12.266 l 7.4708,2.0507 c 1.0399,0.28549 0.31192,6.217 -1.6329,13.298 -0.1658,0.60376 -0.34571,1.108 -0.51706,1.6858 9.4026,0.0245 18.794,-0.7092 28.022,-2.2161 1.1985,-3.0261 2.3076,-5.0313 2.9256,-4.8616 l 7.4728,2.0507 c 0.17912,0.0491 0.28797,0.3192 0.36499,0.6804 3.2401,-0.75686 6.4442,-1.6263 9.6189,-2.5848 0.038,-0.14091 0.058,-0.26103 0.0969,-0.40291 1.9449,-7.0812 4.3493,-12.552 5.3893,-12.266 l 7.4708,2.0507 c 0.6422,0.17631 0.5424,2.6374 -0.0342,6.0609 3.1636,-1.282 6.2883,-2.65 9.3452,-4.1527 0.35713,-2.1196 0.85523,-4.5265 1.5987,-7.2335 1.9449,-7.0812 4.3494,-12.552 5.3893,-12.266 l 7.4708,2.0507 c 0.85192,0.23388 0.46732,4.3244 -0.75089,9.6644 4.2239,-2.7387 8.1823,-5.6423 11.841,-8.7122 0.22196,-0.92828 0.40816,-1.8108 0.67865,-2.7957 1.9449,-7.0812 4.3494,-12.552 5.3893,-12.266 l 7.0754,1.9424 c 9.6949,-11.552 16.166,-24.494 19.202,-38.017 4.8212,-15.078 5.2693,-30.823 1.4105,-46.07 l -4.7676,-1.3076 c -0.88773,-0.2437 -0.42801,-4.6811 0.91817,-10.356 -1.9272,-4.7009 -4.2876,-9.318 -7.0868,-13.821 -0.20552,0.19286 -0.39491,0.30988 -0.54748,0.26799 l -7.4709,-2.0526 c -0.80186,-0.22014 -0.53466,-3.8227 0.51328,-8.6951 -3.6405,-4.4732 -7.6966,-8.8076 -12.29,-12.92 -3.086,-2.7627 -6.3374,-5.3468 -9.695,-7.8018 -0.29149,2.4091 -0.9586,5.6747 -1.939,9.2443 -1.9449,7.0812 -4.3474,12.554 -5.3874,12.268 l -7.4709,-2.0526 c -1.0399,-0.28549 -0.31192,-6.2151 1.633,-13.296 1.6053,-5.845 3.5109,-10.537 4.7163,-11.856 -2.5801,-1.5988 -5.2266,-3.1034 -7.9214,-4.5385 -1.3991,3.8433 -2.7469,6.4399 -3.456,6.2452 l -7.4708,-2.0507 c -0.82772,-0.22725 -0.49969,-4.0832 0.63492,-9.1968 -7.8022,-3.4035 -15.966,-6.1576 -24.352,-8.2921 -1.6162,4.8694 -3.2703,8.2484 -4.0871,8.0242 l -7.4708,-2.0507 c -0.78712,-0.21609 -0.55493,-3.6765 0.44484,-8.4119 -8.8371,-1.6263 -17.848,-2.5829 -26.905,-2.8337 z m 9.7102,1.2202 7.4727,2.0526 c 1.0399,0.2855 0.31002,6.2152 -1.6348,13.296 -1.9449,7.0812 -4.3474,12.552 -5.3874,12.266 l -7.4709,-2.0507 c -1.0399,-0.28549 -0.31191,-6.2151 1.633,-13.296 1.94491,-7.0809 4.3474,-12.554 5.3874,-12.268 z m 35.275,11.517 7.4708,2.0507 c 1.0399,0.2855 0.31192,6.2151 -1.6329,13.296 -1.9449,7.0812 -4.3475,12.554 -5.3874,12.268 l -7.4708,-2.0526 c -1.0399,-0.28549 -0.31191,-6.2151 1.633,-13.296 1.9448,-7.0812 4.3474,-12.552 5.3874,-12.266 z m -58.216,1.0073 7.4708,2.0507 c 1.0399,0.2855 0.31191,6.2152 -1.633,13.296 -1.9449,7.0812 -4.3474,12.554 -5.3874,12.268 l -7.4708,-2.0526 c -1.0399,-0.2855 -0.31192,-6.2151 1.633,-13.296 1.9448,-7.0812 4.3474,-12.552 5.3874,-12.266 z m -60.898,2.102 7.4708,2.0526 c 1.0399,0.28548 0.31193,6.2151 -1.633,13.296 -1.9448,7.0812 -4.3474,12.552 -5.3874,12.266 l -7.4728,-2.0507 c -1.0399,-0.2855 -0.31001,-6.2152 1.6348,-13.296 1.9449,-7.0812 4.3474,-12.554 5.3874,-12.268 z m 97.167,7.855 7.4709,2.0507 c 1.0399,0.2855 0.31191,6.2152 -1.6329,13.296 -1.9449,7.0812 -4.3474,12.554 -5.3874,12.268 l -7.4708,-2.0526 c -1.0399,-0.28549 -0.31191,-6.2151 1.633,-13.296 1.9449,-7.0812 4.3474,-12.552 5.3874,-12.266 z m -60.898,2.102 7.4708,2.0526 c 1.0399,0.2855 0.31193,6.2151 -1.633,13.296 -1.9448,7.0812 -4.3474,12.552 -5.3874,12.266 l -7.4728,-2.0507 c -1.0399,-0.28551 -0.31001,-6.2152 1.6348,-13.296 1.9449,-7.0812 4.3474,-12.554 5.3874,-12.268 z m -59.21,2.5677 7.4708,2.0507 c 1.0399,0.28548 0.31193,6.217 -1.6329,13.298 -1.9449,7.0812 -4.3494,12.552 -5.3893,12.266 l -7.4708,-2.0507 c -1.0399,-0.28549 -0.31192,-6.217 1.633,-13.298 1.9448,-7.0812 4.3493,-12.552 5.3893,-12.266 z m 155.38,6.8458 7.4708,2.0507 c 1.0399,0.28549 0.31192,6.217 -1.6329,13.298 -1.9449,7.0812 -4.3474,12.552 -5.3874,12.266 l -7.4727,-2.0507 c -1.0399,-0.2855 -0.31003,-6.217 1.6348,-13.298 1.9448,-7.0812 4.3474,-12.552 5.3874,-12.266 z m -59.044,4.0235 7.4708,2.0507 c 1.0399,0.2855 0.31191,6.217 -1.6329,13.298 -1.9449,7.0812 -4.3475,12.552 -5.3874,12.266 l -7.4708,-2.0507 c -1.0399,-0.2855 -0.31192,-6.217 1.6329,-13.298 1.9448,-7.0812 4.3474,-12.552 5.3874,-12.266 z m -60.898,2.1039 7.4708,2.0507 c 1.0399,0.2855 0.31192,6.217 -1.6329,13.298 -1.9449,7.0812 -4.3474,12.552 -5.3874,12.266 l -7.4728,-2.0507 c -1.0399,-0.28549 -0.31001,-6.217 1.6348,-13.298 1.9449,-7.0812 4.3475,-12.552 5.3874,-12.266 z m 155.38,6.8458 7.4708,2.0507 c 1.0399,0.28549 0.31192,6.217 -1.6329,13.298 -1.9449,7.0812 -4.3475,12.552 -5.3874,12.266 l -7.4708,-2.0507 c -1.0399,-0.28549 -0.31193,-6.217 1.633,-13.298 1.9448,-7.0812 4.3474,-12.552 5.3874,-12.266 z m -59.21,2.5676 7.4708,2.0507 c 1.0399,0.2855 0.31191,6.2152 -1.6329,13.296 -1.9449,7.0812 -4.3474,12.552 -5.3874,12.266 l -7.4728,-2.0507 c -1.0399,-0.2855 -0.31002,-6.2151 1.6348,-13.296 1.9448,-7.0812 4.3474,-12.552 5.3874,-12.266 z m -58.216,1.0073 7.4708,2.0507 c 1.0399,0.28548 0.3119,6.2151 -1.6329,13.296 -1.9449,7.0812 -4.3475,12.554 -5.3874,12.268 l -7.4728,-2.0526 c -1.0399,-0.28549 -0.31002,-6.2151 1.6348,-13.296 1.9448,-7.0812 4.3474,-12.552 5.3874,-12.266 z m -60.898,2.102 7.4708,2.0526 c 1.0399,0.28549 0.31192,6.2151 -1.633,13.296 -1.9448,7.0812 -4.3493,12.552 -5.3892,12.266 l -7.4708,-2.0507 c -1.0399,-0.28549 -0.31192,-6.2151 1.6329,-13.296 1.94482,-7.0809 4.3494,-12.554 5.3893,-12.268 z m 155.38,6.8477 7.4708,2.0507 c 1.0399,0.28549 0.3119,6.2152 -1.6329,13.296 -1.9449,7.0812 -4.3475,12.552 -5.3874,12.266 l -7.4708,-2.0507 c -1.0399,-0.28548 -0.31192,-6.2151 1.6329,-13.296 1.9449,-7.0812 4.3474,-12.552 5.3874,-12.266 z m -176.94,0.631 7.4727,2.0507 c 1.0399,0.28549 0.31002,6.217 -1.6348,13.298 -1.9448,7.0812 -4.3474,12.552 -5.3874,12.266 l -7.4708,-2.0507 c -1.0399,-0.2855 -0.31193,-6.217 1.6329,-13.298 1.9448,-7.0812 4.3474,-12.552 5.3874,-12.266 z m 118.72,0.37632 7.4708,2.0507 c 1.0399,0.28549 0.31192,6.2151 -1.6329,13.296 -1.9449,7.0812 -4.3474,12.552 -5.3874,12.266 l -7.4708,-2.0507 c -1.0399,-0.2855 -0.31192,-6.2151 1.6329,-13.296 1.9449,-7.0812 4.3474,-12.552 5.3874,-12.266 z m -60.898,2.102 7.4708,2.0507 c 1.0399,0.28548 0.31193,6.217 -1.6329,13.298 -1.9448,7.0812 -4.3474,12.552 -5.3874,12.266 l -7.4727,-2.0507 c -1.0399,-0.28549 -0.31003,-6.217 1.6348,-13.298 1.9448,-7.0812 4.3474,-12.552 5.3874,-12.266 z m 155.38,6.8458 7.4708,2.0526 c 1.0399,0.28547 0.31193,6.2151 -1.6329,13.296 -1.94483,7.0809 -4.3474,12.552 -5.3874,12.266 l -7.4708,-2.0507 c -1.0399,-0.28546 -0.31191,-6.2151 1.6329,-13.296 1.9449,-7.0812 4.3474,-12.554 5.3874,-12.268 z m -59.21,2.5677 7.4708,2.0507 c 1.0399,0.28549 0.31192,6.217 -1.6329,13.298 -1.9449,7.0812 -4.3474,12.552 -5.3874,12.266 l -7.4728,-2.0507 c -1.0399,-0.28551 -0.31002,-6.2171 1.6348,-13.298 1.9448,-7.0812 4.3474,-12.552 5.3874,-12.266 z m -177.77,3.6472 7.4727,2.0526 c 1.0399,0.2855 0.31001,6.2151 -1.6348,13.296 -1.9449,7.0812 -4.3474,12.552 -5.3874,12.266 l -7.4708,-2.0507 c -1.0399,-0.28551 -0.31193,-6.2151 1.633,-13.296 1.9448,-7.0812 4.3474,-12.554 5.3874,-12.268 z m 118.72,0.37632 7.4708,2.0507 c 1.0399,0.28549 0.31193,6.217 -1.6329,13.298 -1.9448,7.0812 -4.3474,12.552 -5.3874,12.266 l -7.4727,-2.0507 c -1.0399,-0.28548 -0.31001,-6.217 1.6348,-13.298 1.9449,-7.0812 4.3474,-12.552 5.3874,-12.266 z m -60.898,2.1039 7.4709,2.0507 c 1.0399,0.28548 0.31191,6.2151 -1.633,13.296 -1.9449,7.0812 -4.3474,12.554 -5.3874,12.268 l -7.4728,-2.0526 c -1.0399,-0.28549 -0.31002,-6.2151 1.6348,-13.296 1.9449,-7.0812 4.3474,-12.552 5.3874,-12.266 z m 39.343,5.3748 7.4708,2.0507 c 1.0399,0.28548 0.31192,6.2151 -1.6329,13.296 -1.94482,7.0809 -4.3494,12.554 -5.3893,12.268 l -7.4708,-2.0526 c -1.0399,-0.28548 -0.31191,-6.2151 1.6329,-13.296 1.9449,-7.0812 4.3494,-12.552 5.3893,-12.266 z m 116.04,1.471 7.4708,2.0507 c 1.0399,0.28547 0.31193,6.217 -1.6329,13.298 -1.9448,7.0812 -4.3474,12.552 -5.3874,12.266 l -7.4708,-2.0507 c -1.0399,-0.2855 -0.31191,-6.217 1.6329,-13.298 1.9449,-7.0812 4.3474,-12.552 5.3874,-12.266 z m -176.94,0.63099 7.4727,2.0526 c 1.0399,0.2855 0.31001,6.2151 -1.6348,13.296 -1.9449,7.0812 -4.3475,12.552 -5.3874,12.266 l -7.4708,-2.0507 c -1.0399,-0.28549 -0.31193,-6.2151 1.6329,-13.296 1.9449,-7.0812 4.3474,-12.554 5.3874,-12.268 z m 117.73,1.9348 7.4708,2.0526 c 1.0399,0.2855 0.31193,6.2151 -1.6329,13.296 -1.94483,7.0809 -4.3494,12.552 -5.3893,12.266 l -7.4708,-2.0507 c -1.0399,-0.2855 -0.31191,-6.2151 1.6329,-13.296 1.9449,-7.0812 4.3494,-12.554 5.3893,-12.268 z m -20.561,5.9202 7.4708,2.0507 c 1.0399,0.28548 0.31192,6.2151 -1.6329,13.296 -1.9449,7.0812 -4.3475,12.554 -5.3874,12.268 l -7.4727,-2.0526 c -1.0399,-0.28549 -0.31002,-6.2151 1.6348,-13.296 1.9449,-7.0812 4.3475,-12.552 5.3874,-12.266 z m 117.73,1.9348 7.4708,2.0507 c 1.0399,0.28549 0.31192,6.2151 -1.6329,13.296 -1.9449,7.0812 -4.3475,12.554 -5.3874,12.268 l -7.4708,-2.0526 c -1.0399,-0.28549 -0.31191,-6.2151 1.6329,-13.296 1.9448,-7.0812 4.3474,-12.552 5.3874,-12.266 z m -178.63,0.16725 7.4708,2.0526 c 1.0399,0.2855 0.31192,6.2152 -1.6329,13.296 -1.9449,7.0812 -4.3494,12.552 -5.3893,12.266 l -7.4708,-2.0507 c -1.0399,-0.28549 -0.31192,-6.2151 1.6329,-13.296 1.9449,-7.0812 4.3493,-12.554 5.3893,-12.268 z m 117.73,1.9348 7.4708,2.0526 c 1.0399,0.28549 0.31192,6.2151 -1.6329,13.296 -1.9449,7.0812 -4.3475,12.552 -5.3874,12.266 l -7.4728,-2.0507 c -1.0399,-0.2855 -0.31001,-6.2151 1.6348,-13.296 1.9449,-7.0812 4.3474,-12.554 5.3874,-12.268 z m -176.94,0.63289 7.4727,2.0507 c 1.0399,0.2855 0.31002,6.217 -1.6348,13.298 -1.9448,7.0812 -4.3474,12.552 -5.3874,12.266 l -7.4708,-2.0507 c -1.0399,-0.28549 -0.31191,-6.217 1.6329,-13.298 1.9449,-7.0812 4.3474,-12.552 5.3874,-12.266 z m 155.38,6.8458 7.4708,2.0507 c 1.0399,0.2855 0.31193,6.217 -1.6329,13.298 -1.9448,7.0812 -4.3494,12.552 -5.3893,12.266 l -7.4708,-2.0507 c -1.0399,-0.28549 -0.31191,-6.217 1.6329,-13.298 1.9449,-7.0812 4.3494,-12.552 5.3893,-12.266 z m 57.824,2.4783 7.4708,2.0526 c 1.0399,0.2855 0.3119,6.2151 -1.6329,13.296 -1.9449,7.0812 -4.3475,12.552 -5.3874,12.266 l -7.4728,-2.0507 c -1.0399,-0.28549 -0.31002,-6.2151 1.6348,-13.296 1.9448,-7.0812 4.3474,-12.554 5.3874,-12.268 z m -116.87,1.5452 7.4708,2.0507 c 1.0399,0.28548 0.31192,6.217 -1.6329,13.298 -1.9448,7.0812 -4.3474,12.552 -5.3874,12.266 l -7.4728,-2.0507 c -1.0399,-0.2855 -0.31001,-6.217 1.6348,-13.298 1.9449,-7.0812 4.3475,-12.552 5.3874,-12.266 z m -60.898,2.1039 7.4708,2.0507 c 1.0399,0.2855 0.3119,6.2152 -1.6329,13.296 -1.9449,7.0812 -4.3494,12.554 -5.3893,12.268 l -7.4708,-2.0526 c -1.0399,-0.28549 -0.3119,-6.2151 1.633,-13.296 1.9448,-7.0812 4.3493,-12.552 5.3893,-12.266 z m 96.17,9.4116 7.4727,2.0526 c 1.0399,0.28548 0.31002,6.2151 -1.6348,13.296 -1.9448,7.0812 -4.3474,12.552 -5.3874,12.266 l -7.4708,-2.0507 c -1.0399,-0.28548 -0.31192,-6.2151 1.6329,-13.296 1.9448,-7.0812 4.3474,-12.554 5.3874,-12.268 z m -58.214,1.0092 7.4708,2.0507 c 1.0399,0.28551 0.3119,6.2151 -1.633,13.296 -1.9449,7.0812 -4.3494,12.552 -5.3893,12.266 l -7.4708,-2.0507 c -1.0399,-0.28549 -0.31192,-6.2151 1.6329,-13.296 1.9449,-7.0812 4.3494,-12.552 5.3893,-12.266 z m 116.04,1.471 7.4708,2.0507 c 1.0399,0.28549 0.31193,6.2151 -1.6329,13.296 -1.9449,7.0812 -4.3474,12.554 -5.3874,12.268 l -7.4727,-2.0526 c -1.0399,-0.2855 -0.31001,-6.2151 1.6348,-13.296 1.9448,-7.0812 4.3474,-12.552 5.3874,-12.266 z m -176.94,0.631 7.4728,2.0507 c 1.0399,0.2855 0.31002,6.217 -1.6348,13.298 -1.9449,7.0812 -4.3474,12.552 -5.3874,12.266 l -7.4708,-2.0507 c -1.0399,-0.28549 -0.31191,-6.217 1.6329,-13.298 1.9449,-7.0812 4.3474,-12.552 5.3874,-12.266 z m 216.28,4.7438 7.4708,2.0507 c 1.0399,0.28548 0.31192,6.2151 -1.6329,13.296 -1.94482,7.0809 -4.3474,12.554 -5.3874,12.268 l -7.4728,-2.0526 c -1.0399,-0.28548 -0.31001,-6.2151 1.6348,-13.296 1.9449,-7.0812 4.3474,-12.552 5.3874,-12.266 z m -60.898,2.102 7.4708,2.0526 c 1.0399,0.28549 0.3119,6.2151 -1.633,13.296 -1.9449,7.0812 -4.3494,12.552 -5.3893,12.266 l -7.4708,-2.0507 c -1.0399,-0.2855 -0.31192,-6.2151 1.6329,-13.296 1.9448,-7.0812 4.3494,-12.554 5.3893,-12.268 z m -58.216,1.0073 7.4708,2.0526 c 1.0399,0.28549 0.31191,6.2151 -1.6329,13.296 -1.9449,7.0812 -4.3494,12.552 -5.3893,12.266 l -7.4708,-2.0507 c -1.0399,-0.28549 -0.31192,-6.2151 1.6329,-13.296 1.9448,-7.0812 4.3494,-12.554 5.3893,-12.268 z m -60.9,2.1039 7.4727,2.0507 c 1.0399,0.2855 0.31002,6.217 -1.6348,13.298 -1.9449,7.0812 -4.3475,12.552 -5.3874,12.266 l -7.4708,-2.0507 c -1.0399,-0.28549 -0.3119,-6.217 1.633,-13.298 1.9449,-7.0812 4.3474,-12.552 5.3874,-12.266 z m 155.38,6.8458 7.4708,2.0526 c 1.0399,0.2855 0.31191,6.2151 -1.6329,13.296 -1.9449,7.0812 -4.3474,12.552 -5.3874,12.266 l -7.4727,-2.0507 c -1.0399,-0.28551 -0.31002,-6.2152 1.6348,-13.296 1.9449,-7.0812 4.3475,-12.554 5.3874,-12.268 z m -59.212,2.5677 7.4727,2.0507 c 1.0399,0.28548 0.31002,6.217 -1.6348,13.298 -1.9449,7.0812 -4.3475,12.552 -5.3874,12.266 l -7.4708,-2.0507 c -1.0399,-0.28549 -0.31191,-6.217 1.6329,-13.298 1.9449,-7.0812 4.3475,-12.552 5.3874,-12.266 z m -59.042,4.0235 7.4708,2.0507 c 1.0399,0.28549 0.31192,6.217 -1.6329,13.298 -1.9449,7.0812 -4.3494,12.552 -5.3893,12.266 l -7.4708,-2.0507 c -1.0399,-0.2855 -0.31194,-6.217 1.6329,-13.298 1.9448,-7.0812 4.3494,-12.552 5.3893,-12.266 z m -60.9,2.1039 7.4727,2.0507 c 1.0399,0.2855 0.31002,6.2152 -1.6348,13.296 -1.9448,7.0812 -4.3474,12.554 -5.3874,12.268 l -7.4708,-2.0526 c -1.0399,-0.28549 -0.31192,-6.2151 1.633,-13.296 1.9448,-7.0812 4.3474,-12.552 5.3874,-12.266 z m 155.38,6.8458 7.4708,2.0507 c 1.0399,0.2855 0.31192,6.217 -1.6329,13.298 -1.9449,7.0812 -4.3475,12.552 -5.3874,12.266 l -7.4727,-2.0507 c -1.0399,-0.28548 -0.31003,-6.217 1.6348,-13.298 1.9448,-7.0812 4.3474,-12.552 5.3874,-12.266 z m -59.212,2.5658 7.4727,2.0526 c 1.0399,0.2855 0.31001,6.2152 -1.6348,13.296 -1.9449,7.0812 -4.3474,12.552 -5.3874,12.266 l -7.4708,-2.0507 c -1.0399,-0.28548 -0.3119,-6.2151 1.6329,-13.296 1.9449,-7.0812 4.3474,-12.554 5.3874,-12.268 z m -58.216,1.0073 7.4727,2.0526 c 1.0399,0.28549 0.31002,6.2151 -1.6348,13.296 -1.9448,7.0812 -4.3474,12.552 -5.3874,12.266 l -7.4708,-2.0507 c -1.0399,-0.2855 -0.31191,-6.2151 1.6329,-13.296 1.9449,-7.0812 4.3474,-12.554 5.3874,-12.268 z m 94.484,8.9498 7.4727,2.0507 c 1.0399,0.2855 0.31002,6.217 -1.6348,13.298 -1.9448,7.0812 -4.3474,12.552 -5.3874,12.266 l -7.4708,-2.0507 c -1.0399,-0.28549 -0.31191,-6.217 1.6329,-13.298 1.94481,-7.081 4.3474,-12.552 5.3874,-12.266 z m -58.216,1.0073 7.4727,2.0526 c 1.0399,0.28549 0.31002,6.2151 -1.6348,13.296 -1.9448,7.0812 -4.3474,12.552 -5.3874,12.266 l -7.4708,-2.0507 c -1.0399,-0.2855 -0.31192,-6.2151 1.6329,-13.296 1.9449,-7.0812 4.3475,-12.554 5.3874,-12.268 z m 35.275,11.517 7.4727,2.0507 c 1.0399,0.28549 0.31002,6.2151 -1.6348,13.296 -1.9448,7.0812 -4.3474,12.554 -5.3874,12.268 l -7.4708,-2.0526 c -1.0399,-0.28549 -0.31191,-6.2151 1.6329,-13.296 1.9449,-7.0812 4.3474,-12.552 5.3874,-12.266 z"
       fill="#333333"
       stroke-width="0.9732"
       id="path16" />
  </g>
</svg>
